<svg xmlns="http://www.w3.org/2000/svg" xmlns:xlink="http://www.w3.org/1999/xlink" width="80" height="80" viewBox="0 0 80 80">
  <defs>
    <linearGradient id="linear-gradient" x1="-3.127" y1="2.719" x2="6.228" y2="-3.006" gradientUnits="objectBoundingBox">
      <stop offset="0" stop-color="#b57e11"/>
      <stop offset="0.402" stop-color="#e2be57"/>
      <stop offset="0.613" stop-color="#f9df7c"/>
      <stop offset="0.72" stop-color="#fff3a7"/>
      <stop offset="0.839" stop-color="#f9df7c"/>
      <stop offset="1" stop-color="#b57e11"/>
    </linearGradient>
    <linearGradient id="linear-gradient-2" x1="-2.586" y1="2.388" x2="6.769" y2="-3.337" xlink:href="#linear-gradient"/>
    <linearGradient id="linear-gradient-3" x1="-4.817" y1="3.756" x2="8.393" y2="-4.328" xlink:href="#linear-gradient"/>
    <linearGradient id="linear-gradient-4" x1="-5.832" y1="4.374" x2="15.753" y2="-8.835" xlink:href="#linear-gradient"/>
    <linearGradient id="linear-gradient-5" x1="-6.73" y1="4.923" x2="14.854" y2="-8.286" xlink:href="#linear-gradient"/>
    <linearGradient id="linear-gradient-6" x1="-15.119" y1="10.057" x2="24.196" y2="-14.001" xlink:href="#linear-gradient"/>
    <linearGradient id="linear-gradient-7" x1="-11.168" y1="7.645" x2="28.143" y2="-16.413" xlink:href="#linear-gradient"/>
    <linearGradient id="linear-gradient-8" x1="-25.728" y1="16.554" x2="13.587" y2="-7.505" xlink:href="#linear-gradient"/>
    <linearGradient id="linear-gradient-9" x1="-12.718" y1="8.588" x2="8.867" y2="-4.621" xlink:href="#linear-gradient"/>
    <linearGradient id="linear-gradient-10" x1="-6.773" y1="4.95" x2="14.812" y2="-8.258" xlink:href="#linear-gradient"/>
    <linearGradient id="linear-gradient-11" x1="-7.823" y1="5.593" x2="7.395" y2="-3.72" xlink:href="#linear-gradient"/>
    <linearGradient id="linear-gradient-12" x1="-4.771" y1="3.727" x2="6.386" y2="-3.101" xlink:href="#linear-gradient"/>
    <linearGradient id="linear-gradient-13" x1="-4.497" y1="3.556" x2="8.713" y2="-4.527" xlink:href="#linear-gradient"/>
    <linearGradient id="linear-gradient-14" x1="-6.234" y1="4.62" x2="7.94" y2="-4.054" xlink:href="#linear-gradient"/>
    <linearGradient id="linear-gradient-15" x1="-9.616" y1="6.689" x2="9.255" y2="-4.859" xlink:href="#linear-gradient"/>
    <linearGradient id="linear-gradient-16" x1="-8.466" y1="5.987" x2="13.118" y2="-7.221" xlink:href="#linear-gradient"/>
    <linearGradient id="linear-gradient-17" x1="-11.734" y1="7.987" x2="15.559" y2="-8.715" xlink:href="#linear-gradient"/>
    <linearGradient id="linear-gradient-18" x1="-5.108" y1="3.93" x2="8.102" y2="-4.154" xlink:href="#linear-gradient"/>
    <linearGradient id="linear-gradient-19" x1="-14.405" y1="9.619" x2="24.91" y2="-14.44" xlink:href="#linear-gradient"/>
    <linearGradient id="linear-gradient-20" x1="-11.21" y1="7.667" x2="28.105" y2="-16.391" xlink:href="#linear-gradient"/>
    <linearGradient id="linear-gradient-21" x1="-22.731" y1="14.715" x2="16.584" y2="-9.344" xlink:href="#linear-gradient"/>
    <linearGradient id="linear-gradient-22" x1="-12.752" y1="8.61" x2="26.563" y2="-15.448" xlink:href="#linear-gradient"/>
    <linearGradient id="linear-gradient-23" x1="-15.677" y1="10.397" x2="23.638" y2="-13.661" xlink:href="#linear-gradient"/>
    <clipPath id="clip-custom_1">
      <rect width="80" height="80"/>
    </clipPath>
  </defs>
  <g id="custom_1" data-name="custom – 1" clip-path="url(#clip-custom_1)">
    <rect width="80" height="80" fill="none"/>
    <g id="Logo" transform="translate(-221.394 -126.346)">
      <g id="Group_4" data-name="Group 4" transform="translate(221.394 142.677)">
        <path id="Path_6" data-name="Path 6" d="M400.519,188.563c-4.57,0-8.375,3.712-11.1,7.3-3.318,4.407-8.268,12.408-14.953,20.87-1.9,2.435-5.115,6.433-7.073,6.838-1.306.286-1.574-3.822,2.938-14.376a81.26,81.26,0,0,1,7.759-14.772c2.066-2.743,4.917-5.464,6.71-5.882a2.673,2.673,0,0,1,3.214,1.51c.153.352.537.251.492-.1a3.922,3.922,0,0,0-3.462-2.272c-4.566-.167-8.313,3.417-11.147,6.9h0c-1.566,1.823-3.008,3.892-4.111,5.451l-5.979,8.467c-6.636,9.392-13.329,18.431-20.564,21.68a16.394,16.394,0,0,1-2.318.863v.009c-1.669.348-8.21,1.057-10.226-3.831a6.6,6.6,0,0,1,.81-2.408c.05-.1.1-.207.165-.33a.034.034,0,0,0,.008-.018l.533-.885.537-.885c.359-.59.723-1.176,1.082-1.761q1.091-1.757,2.215-3.492c.376-.577.752-1.154,1.136-1.726.314-.467.628-.933.95-1.4.083.048.165.092.252.136a12.324,12.324,0,0,0,1.442.66,11.734,11.734,0,0,0,3.07.731,10.546,10.546,0,0,0,1.582.031,10.481,10.481,0,0,0,4.549-1.312c.236-.128.463-.269.686-.418s.442-.3.657-.471a10.32,10.32,0,0,0,1.2-1.088,10.607,10.607,0,0,0,1.033-1.268c.157-.225.3-.458.442-.7s.269-.484.384-.731a15.237,15.237,0,0,0,.62-1.506c.178-.511.331-1.03.463-1.554a23.043,23.043,0,0,0,.649-3.144c.083-.775.145-1.55.178-2.325h.017c0-.167,0-.339,0-.511,0-.114.012-.229.012-.348,0-.048-.008-.1-.008-.15a23.612,23.612,0,0,0-.149-3.161c-.045-.339-.087-.74-.145-1.079s-.112-.652-.182-.986a7.757,7.757,0,0,0-.2-.933c-.1-.308-.236-.251-.256-.238-.07.044-.058.128-.045.233,0-.009,0-.009,0,.04.041.339.079.678.107,1.017.017.185.029.37.045.55.008.238.012.471.012.709q.006.383,0,.766c0,.511-.012,1.021-.037,1.528s-.05,1.017-.091,1.523c-.083,1.013-.2,2.017-.372,3.007-.087.5-.186.986-.3,1.475s-.244.969-.388,1.44a15.22,15.22,0,0,1-1.111,2.7q-.167.31-.359.608c-.128.2-.26.392-.4.577a9.385,9.385,0,0,1-.921,1.048,9.851,9.851,0,0,1-1.054.889c-.186.132-.376.26-.57.379s-.393.233-.591.335a9.2,9.2,0,0,1-1.244.533,9.575,9.575,0,0,1-1.3.343,9.17,9.17,0,0,1-2.665.1,10,10,0,0,1-2.607-.647,11.754,11.754,0,0,1-1.235-.572c-.2-.106-.4-.22-.595-.339-.1-.062-.194-.119-.293-.185l-.145-.1-.14-.092a9.2,9.2,0,0,1-1.062-.85,8.934,8.934,0,0,1-.93-1,8.678,8.678,0,0,1-.773-1.136c-.116-.2-.219-.405-.318-.612s-.19-.423-.273-.638a9.984,9.984,0,0,1-.4-1.343,9.828,9.828,0,0,1-.2-1.4,10.585,10.585,0,0,1,1.107-5.53l.021-.04,0-.009a14.664,14.664,0,0,1,1.888-3.245,21.137,21.137,0,0,1,2.566-2.778,29.24,29.24,0,0,1,2.967-2.364c.26-.181.521-.357.785-.533s.533-.343.8-.511.541-.33.814-.489c.066-.04.037-.022,0,0a.325.325,0,0,0,.161-.277.225.225,0,0,0-.231-.2.133.133,0,0,0-.041,0c-.017,0-.029,0-.045,0s-.008,0-.012.009a.631.631,0,0,0-.083.013,6.124,6.124,0,0,0-.83.374c-.293.136-.566.273-.855.418s-.62.343-.9.5a26.21,26.21,0,0,0-3.264,2.307,20.387,20.387,0,0,0-2.942,2.769c-.223.26-.438.528-.649.8s-.409.559-.6.85-.376.59-.545.9-.318.594-.463.9a11.848,11.848,0,0,0-1.194,3.087,12.113,12.113,0,0,0-.3,3.346,11.215,11.215,0,0,0,.669,3.311,10.511,10.511,0,0,0,1.632,2.924,10.814,10.814,0,0,0,1.12,1.215c.244.225.5.44.756.643-.244.511-.5,1.017-.748,1.523q-.465.931-.942,1.854c-.636,1.233-1.285,2.452-1.942,3.672q-.5.911-1,1.818l-.5.907-.43.771a12.072,12.072,0,0,1-1.892,2.373,4.213,4.213,0,0,1-2.921.255c0-.009,0-.018-.008-.026-.021,0-.037,0-.058.009-1.24-.339-2.1-1.061-2.248-.955-.252.172-.178.643.112,1.246a5.6,5.6,0,0,0,.669,1.013l.041.057c3.537,4.694,9.4,5.535,14.56,4.491l2.066-.52,2.285-.867c7.941-3.65,15.011-13.68,20.886-21.68,2.231-3.131,4.785-6.666,6.8-9.33-1.306,2.144-2.5,4.465-3.59,6.723a34.428,34.428,0,0,0-3.425,12.06c-.161,3.307.814,5.27,2.876,5.618,3.157.524,12.622-12.923,15.5-17.1l7.069-10.145L379.034,217.32c-1.628,3.131-1.467,5.16-.814,6.147.76,1.1,2.173.92,3.2.634,4.351-.982,8.7-5.618,11.313-10.374.219-.405-.107-.7-.434-.172a23.527,23.527,0,0,1-6.855,7.771c-2.285,1.563-5.652,2.95-3.863-.581l12.784-24.582c1.525-3.007,4.024-6.2,5.929-6.723a2.67,2.67,0,0,1,3.264,1.391c.161.348.545.233.492-.114A3.883,3.883,0,0,0,400.519,188.563Z" transform="translate(-323.689 -187.677)" fill="#fff"/>
        <g id="Group_3" data-name="Group 3" transform="translate(19.028 6.442)">
          <path id="Path_7" data-name="Path 7" d="M357.74,223.621a2.351,2.351,0,1,0,2.351-2.351A2.351,2.351,0,0,0,357.74,223.621Z" transform="translate(-354.09 -205.34)" fill="url(#linear-gradient)"/>
          <path id="Path_8" data-name="Path 8" d="M362.412,232.151a2.351,2.351,0,1,0-2.351,2.351A2.351,2.351,0,0,0,362.412,232.151Z" transform="translate(-354.08 -208.189)" fill="url(#linear-gradient-2)"/>
          <path id="Path_9" data-name="Path 9" d="M357.475,218.58a1.665,1.665,0,1,0-1.665-1.665A1.666,1.666,0,0,0,357.475,218.58Z" transform="translate(-353.446 -203.329)" fill="url(#linear-gradient-3)"/>
          <path id="Path_10" data-name="Path 10" d="M355.149,228.1a1.019,1.019,0,1,0,1.019,1.019A1.019,1.019,0,0,0,355.149,228.1Z" transform="translate(-352.885 -207.621)" fill="url(#linear-gradient-4)"/>
          <path id="Path_11" data-name="Path 11" d="M353.279,220.908a1.019,1.019,0,1,0-1.019-1.019A1.019,1.019,0,0,0,353.279,220.908Z" transform="translate(-352.26 -204.538)" fill="url(#linear-gradient-5)"/>
          <circle id="Ellipse_1" data-name="Ellipse 1" cx="0.559" cy="0.559" r="0.559" transform="translate(1.632 10.549)" fill="url(#linear-gradient-6)"/>
          <path id="Path_12" data-name="Path 12" d="M352.959,224.31a.559.559,0,1,0,.559.559A.558.558,0,0,0,352.959,224.31Z" transform="translate(-352.307 -206.355)" fill="url(#linear-gradient-7)"/>
          <circle id="Ellipse_2" data-name="Ellipse 2" cx="0.559" cy="0.559" r="0.559" transform="translate(11.495)" fill="url(#linear-gradient-8)"/>
          <path id="Path_13" data-name="Path 13" d="M366.549,201.438a1.019,1.019,0,1,0-1.019-1.019A1.019,1.019,0,0,0,366.549,201.438Z" transform="translate(-356.692 -198.035)" fill="url(#linear-gradient-9)"/>
          <path id="Path_14" data-name="Path 14" d="M364.469,236.86a1.019,1.019,0,1,0,1.019,1.019A1.019,1.019,0,0,0,364.469,236.86Z" transform="translate(-355.998 -210.547)" fill="url(#linear-gradient-10)"/>
          <circle id="Ellipse_3" data-name="Ellipse 3" cx="1.445" cy="1.445" r="1.445" transform="translate(5.994 3.456)" fill="url(#linear-gradient-11)"/>
          <path id="Path_15" data-name="Path 15" d="M358.891,210.933a1.971,1.971,0,1,0-1.971-1.971A1.971,1.971,0,0,0,358.891,210.933Z" transform="translate(-353.817 -200.57)" fill="url(#linear-gradient-12)"/>
          <path id="Path_16" data-name="Path 16" d="M369.345,238.26a1.665,1.665,0,1,0,1.665,1.665A1.666,1.666,0,0,0,369.345,238.26Z" transform="translate(-357.411 -211.015)" fill="url(#linear-gradient-13)"/>
          <path id="Path_17" data-name="Path 17" d="M378.442,238.84a1.552,1.552,0,1,0,1.552,1.552A1.553,1.553,0,0,0,378.442,238.84Z" transform="translate(-360.487 -211.208)" fill="url(#linear-gradient-14)"/>
          <circle id="Ellipse_4" data-name="Ellipse 4" cx="1.165" cy="1.165" r="1.165" transform="translate(20.239 27.632)" fill="url(#linear-gradient-15)"/>
          <circle id="Ellipse_5" data-name="Ellipse 5" cx="1.019" cy="1.019" r="1.019" transform="translate(8.778 20.725)" fill="url(#linear-gradient-16)"/>
          <circle id="Ellipse_6" data-name="Ellipse 6" cx="0.806" cy="0.806" r="0.806" transform="translate(14.232 26.26)" fill="url(#linear-gradient-17)"/>
          <path id="Path_18" data-name="Path 18" d="M369.735,232.04A1.665,1.665,0,1,0,371.4,233.7,1.666,1.666,0,0,0,369.735,232.04Z" transform="translate(-357.541 -208.937)" fill="url(#linear-gradient-18)"/>
          <circle id="Ellipse_7" data-name="Ellipse 7" cx="0.559" cy="0.559" r="0.559" transform="translate(9.124 24.588)" fill="url(#linear-gradient-19)"/>
          <path id="Path_19" data-name="Path 19" d="M361.349,237.87a.559.559,0,1,0,.559.559A.559.559,0,0,0,361.349,237.87Z" transform="translate(-355.109 -210.884)" fill="url(#linear-gradient-20)"/>
          <circle id="Ellipse_8" data-name="Ellipse 8" cx="0.559" cy="0.559" r="0.559" transform="translate(22.996 26.333)" fill="url(#linear-gradient-21)"/>
          <circle id="Ellipse_9" data-name="Ellipse 9" cx="0.559" cy="0.559" r="0.559" transform="translate(1.938 16.996)" fill="url(#linear-gradient-22)"/>
          <circle id="Ellipse_10" data-name="Ellipse 10" cx="0.559" cy="0.559" r="0.559" transform="translate(14.312 29.869)" fill="url(#linear-gradient-23)"/>
        </g>
      </g>
    </g>
  </g>
</svg>
